{
  "accessors": [
    {
      "bufferView": 2,
      "componentType": 5126,
      "count": 4857,
      "max": [
        0.11097099632024765,
        0.5461134314537048,
        0.26592957973480225
      ],
      "min": [
        -0.11097099632024765,
        -0.5777894854545593,
        -0.46961548924446106
      ],
      "type": "VEC3"
    },
    {
      "bufferView": 2,
      "byteOffset": 58284,
      "componentType": 5126,
      "count": 4857,
      "type": "VEC3"
    },
    {
      "bufferView": 1,
      "componentType": 5126,
      "count": 4857,
      "type": "VEC2"
    },
    {
      "bufferView": 1,
      "byteOffset": 38856,
      "componentType": 5126,
      "count": 4857,
      "type": "VEC2"
    },
    {
      "bufferView": 1,
      "byteOffset": 77712,
      "componentType": 5126,
      "count": 4857,
      "type": "VEC2"
    },
    {
      "bufferView": 4,
      "componentType": 5123,
      "count": 4857,
      "type": "VEC4"
    },
    {
      "bufferView": 3,
      "componentType": 5126,
      "count": 4857,
      "type": "VEC4"
    },
    {
      "bufferView": 0,
      "componentType": 5125,
      "count": 6831,
      "type": "SCALAR"
    },
    {
      "bufferView": 5,
      "componentType": 5126,
      "count": 4,
      "type": "MAT4"
    }
  ],
  "asset": {
    "generator": "fab-model-conversion",
    "version": "2.0"
  },
  "bufferViews": [
    {
      "buffer": 0,
      "byteLength": 27324,
      "target": 34963
    },
    {
      "buffer": 0,
      "byteLength": 116568,
      "byteOffset": 27324,
      "byteStride": 8,
      "target": 34962
    },
    {
      "buffer": 0,
      "byteLength": 116568,
      "byteOffset": 143892,
      "byteStride": 12,
      "target": 34962
    },
    {
      "buffer": 0,
      "byteLength": 77712,
      "byteOffset": 260460,
      "byteStride": 16,
      "target": 34962
    },
    {
      "buffer": 0,
      "byteLength": 38856,
      "byteOffset": 338172,
      "byteStride": 8,
      "target": 34962
    },
    {
      "buffer": 0,
      "byteLength": 256,
      "byteOffset": 377028
    }
  ],
  "buffers": [
    {
      "byteLength": 377284,
      "uri": "scene.bin"
    }
  ],
  "images": [
    {
      "uri": "textures/Material_baseColor.png"
    },
    {
      "uri": "textures/Material_metallicRoughness.png"
    },
    {
      "uri": "textures/Material_emissive.png"
    }
  ],
  "materials": [
    {
      "alphaMode": "BLEND",
      "doubleSided": true,
      "emissiveFactor": [
        1.0,
        1.0,
        1.0
      ],
      "emissiveTexture": {
        "index": 2,
        "texCoord": 1
      },
      "name": "Material",
      "pbrMetallicRoughness": {
        "baseColorTexture": {
          "index": 0
        },
        "metallicRoughnessTexture": {
          "index": 1
        }
      }
    }
  ],
  "meshes": [
    {
      "name": "Plasma_Pistol_Material_0",
      "primitives": [
        {
          "attributes": {
            "JOINTS_0": 5,
            "NORMAL": 1,
            "POSITION": 0,
            "TEXCOORD_0": 2,
            "TEXCOORD_1": 3,
            "TEXCOORD_2": 4,
            "WEIGHTS_0": 6
          },
          "indices": 7,
          "material": 0,
          "mode": 4
        }
      ]
    }
  ],
  "nodes": [
    {
      "children": [
        1,
        6
      ],
      "matrix": [
        1.0,
        0.0,
        0.0,
        0.0,
        0.0,
        2.220446049250313e-16,
        -1.0,
        0.0,
        0.0,
        1.0,
        2.220446049250313e-16,
        0.0,
        0.0,
        0.0,
        0.0,
        1.0
      ],
      "name": "Sketchfab_model"
    },
    {
      "children": [
        2
      ],
      "matrix": [
        1.0,
        0.0,
        0.0,
        0.0,
        0.0,
        0.0,
        1.0,
        0.0,
        0.0,
        -1.0,
        0.0,
        0.0,
        0.0,
        0.0,
        0.0,
        1.0
      ],
      "name": "dba2f2df8bc242cdb619314e8c920929.fbx"
    },
    {
      "children": [
        3
      ],
      "name": "RootNode"
    },
    {
      "children": [
        4
      ],
      "matrix": [
        1.0,
        0.0,
        0.0,
        0.0,
        0.0,
        -1.6292067939183141e-07,
        -0.9999999999999868,
        0.0,
        0.0,
        0.9999999999999868,
        -1.6292067939183141e-07,
        0.0,
        0.0,
        0.0,
        0.0,
        1.0
      ],
      "name": "Armature"
    },
    {
      "children": [
        5,
        7
      ],
      "name": "Object_4"
    },
    {
      "matrix": [
        1.0,
        4.168065988354706e-30,
        1.9658841232636692e-23,
        0.0,
        1.9658842404395795e-23,
        -1.0489907471925517e-15,
        -1.0000000596046883,
        0.0,
        -4.1680659677329754e-30,
        1.0000000000000506,
        -1.048990684667842e-15,
        0.0,
        -4.177780212304958e-24,
        2.040075903347871e-10,
        -1.5561973931710327e-08,
        1.0
      ],
      "name": "Object_5"
    },
    {
      "mesh": 0,
      "name": "Object_6",
      "skin": 0
    },
    {
      "children": [
        8,
        10,
        12
      ],
      "name": "body_00"
    },
    {
      "children": [
        9
      ],
      "name": "magazine_01"
    },
    {
      "name": "magazine_end_04"
    },
    {
      "children": [
        11
      ],
      "name": "trigger_02"
    },
    {
      "name": "trigger_end_05"
    },
    {
      "children": [
        13
      ],
      "name": "magazine_release_03"
    },
    {
      "name": "magazine_release_end_06"
    }
  ],
  "samplers": [
    {
      "magFilter": 9729,
      "minFilter": 9987,
      "wrapS": 10497,
      "wrapT": 10497
    }
  ],
  "scene": 0,
  "scenes": [
    {
      "name": "Sketchfab_Scene",
      "nodes": [
        0
      ]
    }
  ],
  "skins": [
    {
      "inverseBindMatrices": 8,
      "joints": [
        12,
        7,
        8,
        10
      ]
    }
  ],
  "textures": [
    {
      "sampler": 0,
      "source": 0
    },
    {
      "sampler": 0,
      "source": 1
    },
    {
      "sampler": 0,
      "source": 2
    }
  ]
}
